<svg xmlns="http://www.w3.org/2000/svg" xmlns:xlink="http://www.w3.org/1999/xlink" viewBox="0 0 1151.59 3238.43"><defs><linearGradient id="a" x1="573.29" y1="2806.19" x2="1148.71" y2="2806.19" gradientUnits="userSpaceOnUse"><stop offset="0.13" stop-color="#fff"/><stop offset="1"/></linearGradient><linearGradient id="b" x1="573.29" y1="3024.19" x2="1148.71" y2="3024.19" xlink:href="#a"/><linearGradient id="c" x1="498.29" y1="2915.19" x2="1148.71" y2="2915.19" xlink:href="#a"/><linearGradient id="d" x1="-4.87" y1="5.38" x2="187.96" y2="198.21" gradientUnits="userSpaceOnUse"><stop offset="0" stop-color="#4589ff"/><stop offset="0.68" stop-color="#fff"/></linearGradient><linearGradient id="e" x1="576.59" y1="3238.43" x2="576.59" y2="2592.43" xlink:href="#d"/></defs><g style="isolation:isolate"><rect y="2591.19" width="1150" height="646" fill="#a8a8a8"/><rect x="581" y="2775.8" width="567.71" height="60.79" fill="#6929c4"/><rect x="581" y="2993.8" width="567.71" height="60.79" fill="#6929c4"/><rect x="507" y="2884.8" width="641.71" height="60.79" fill="#0043ce"/><g style="mix-blend-mode:screen"><rect x="573.29" y="2775.8" width="575.42" height="60.79" fill="url(#a)"/><rect x="573.29" y="2993.8" width="575.42" height="60.79" fill="url(#b)"/><rect x="498.29" y="2884.8" width="650.43" height="60.79" fill="url(#c)"/></g><path d="M620.23,203A60.86,60.86,0,0,1,681,142.23h467V81.44H680.58A121.73,121.73,0,0,0,559.44,203a60.88,60.88,0,0,1-60.8,60.8v60.79A121.72,121.72,0,0,0,620.23,203Z" transform="translate(0 2591.19)" fill="#fff"/><path d="M559.44,446.2A121.73,121.73,0,0,0,680.58,567.78H1148V507H681a60.86,60.86,0,0,1-60.79-60.79A121.72,121.72,0,0,0,498.64,324.61V385.4A60.87,60.87,0,0,1,559.44,446.2Z" transform="translate(0 2591.19)" fill="#fff"/><g style="mix-blend-mode:multiply"><circle cx="649.04" cy="2806.36" r="30.5" fill="#edf5ff"/><circle cx="933.13" cy="2914.64" r="30.5" fill="#edf5ff"/><circle cx="799.74" cy="3024.6" r="30.5" fill="#edf5ff"/><circle cx="1063.74" cy="3127.85" r="30.5" fill="#edf5ff"/><circle cx="857.23" cy="2703.22" r="30.5" fill="#edf5ff"/></g><g style="mix-blend-mode:multiply"><circle cx="675.26" cy="2806.36" r="30.5" fill="#d0e2ff"/><circle cx="959.35" cy="2914.64" r="30.5" fill="#d0e2ff"/><circle cx="825.96" cy="3024.6" r="30.5" fill="#d0e2ff"/><circle cx="1089.96" cy="3127.85" r="30.5" fill="#d0e2ff"/><circle cx="883.45" cy="2703.22" r="30.5" fill="#d0e2ff"/></g><circle cx="697.26" cy="2806.36" r="30.5" fill="#002d9c"/><circle cx="981.35" cy="2914.64" r="30.5" fill="#002d9c"/><circle cx="847.96" cy="3024.6" r="30.5" fill="#002d9c"/><circle cx="1111.96" cy="3127.85" r="30.5" fill="#002d9c"/><circle cx="905.45" cy="2703.22" r="30.5" fill="#002d9c"/><rect width="1150" height="646" fill="#d0e2ff"/><path d="M273.87,263.82V264a76.19,76.19,0,0,1-75.58-76.1h-.46A196,196,0,0,0,140,48.8,196.49,196.49,0,0,0,59.73,0H.49V112.23A76.19,76.19,0,0,1,76.6,188.34h.46A197.33,197.33,0,0,0,273.87,385.22v.18H498.52V263.82Z" transform="translate(0 2591.19)" fill="#fff"/><path d="M140,48.8A196.49,196.49,0,0,0,59.73,0H.49V112.23A76.19,76.19,0,0,1,76.6,188.34H197.83A196.06,196.06,0,0,0,140,48.8Z" transform="translate(0 2591.19)" fill="url(#d)"/><rect x="1.59" y="2592.43" width="1150" height="646" opacity="0.2" fill="url(#e)" style="mix-blend-mode:multiply"/></g></svg>