<?xml version="1.0" encoding="utf-8"?>
<!-- Generator: Adobe Illustrator 25.4.1, SVG Export Plug-In . SVG Version: 6.00 Build 0)  -->
<svg version="1.1" id="Layer_1" xmlns="http://www.w3.org/2000/svg" xmlns:xlink="http://www.w3.org/1999/xlink" x="0px" y="0px"
	 viewBox="0 0 512 512" style="enable-background:new 0 0 512 512;" xml:space="preserve">
<style type="text/css">
	.st0{fill:#878D96;}
</style>
<path class="st0" d="M341.2,404.9H167.8c-2.1-7.5-5.2-14.6-9.2-21.3l225.2-225.2c12.8,7.9,27.6,12.1,42.6,12.1
	c47.1,0.2,85.4-37.9,85.5-85c0.2-47.1-37.9-85.4-85-85.5c-39-0.1-73.1,26.2-82.8,63.9H167.8C156,18.4,109.5-9,63.9,2.7
	S-9,61,2.7,106.6c11.8,45.6,58.3,73,103.8,61.2c30-7.8,53.5-31.2,61.2-61.2h176.4c2.1,7.5,5.2,14.6,9.2,21.3L128.2,353.1
	c-12.8-7.9-27.6-12.1-42.6-12.1c-47.1-0.2-85.4,37.9-85.5,85c-0.2,47.1,37.9,85.4,85,85.5c39,0.1,73.1-26.2,82.8-63.9h173.5v63.9
	h170.5V341H341.2V404.9z M85.5,127.9c-23.5,0-42.6-19.1-42.6-42.6S62,42.6,85.5,42.6s42.6,19.1,42.6,42.6S109.1,127.9,85.5,127.9z
	 M426.5,42.6c23.5,0,42.6,19.1,42.6,42.6s-19.1,42.6-42.6,42.6s-42.6-19.1-42.6-42.6S402.9,42.6,426.5,42.6z M85.5,468.8
	c-23.5,0-42.6-19.1-42.6-42.6s19.1-42.6,42.6-42.6s42.6,19.1,42.6,42.6S109.1,468.8,85.5,468.8z M383.9,383.6h85.2v85.2h-85.2
	L383.9,383.6L383.9,383.6z"/>
</svg>
