<?xml version="1.0" encoding="utf-8"?>
<!-- Generator: Adobe Illustrator 25.4.1, SVG Export Plug-In . SVG Version: 6.00 Build 0)  -->
<svg version="1.1" id="Layer_1" xmlns="http://www.w3.org/2000/svg" xmlns:xlink="http://www.w3.org/1999/xlink" x="0px" y="0px"
	 viewBox="0 0 256 256" style="enable-background:new 0 0 256 256;" xml:space="preserve">
<style type="text/css">
	.st0{fill:#F4F4F4;}
	.st1{fill:none;}
	.st2{fill:url(#high--five_00000170252367102176700140000015442963736564522403_);}
</style>
<rect class="st0" width="256" height="256"/>
<rect id="_Transparent_Rectangle" x="84" y="84" class="st1" width="88" height="88"/>
<linearGradient id="high--five_00000070109285085404589270000015720527930222572714_" gradientUnits="userSpaceOnUse" x1="81.8252" y1="182.8639" x2="174.1748" y2="90.5143">
	<stop  offset="0" style="stop-color:#0F62FE"/>
	<stop  offset="1" style="stop-color:#6929C4"/>
</linearGradient>
<path id="high--five_1_" style="fill:url(#high--five_00000070109285085404589270000015720527930222572714_);" d="M188,169h-2.8
	v-33.7c0-10.3-7-19.1-16.9-21.4c-0.6-0.1-1-0.6-1.1-1.2s0.3-1.2,0.8-1.4c4.3-1.9,7.1-6.2,7.1-10.9c0-6.6-5.4-12-12-12s-12,5.4-12,12
	c0,4.7,2.8,9,7.1,10.9c0.7,0.3,1,1.1,0.7,1.8c-0.3,0.7-1.1,1.1-1.8,0.8c-11.6-4-17.7-9.1-22.1-13.6c-0.4,1.9-1.5,3.8-3.4,5.7
	c-0.5,0.5-1.1,1.1-1.7,1.8c6,6.2,14.7,14.9,14.7,14.9c0.3,0.3,0.4,0.6,0.4,1V169h-2.8v-44.7c-1.8-1.8-9-9.1-14.2-14.5
	c-5.2,5.4-12.4,12.7-14.2,14.5V169H111v-45.3c0-0.4,0.1-0.7,0.4-1c0,0,13.2-13.4,18.3-18.7c1.9-2,2.8-3.8,2.8-5.3
	c0-1.1-0.5-2-1.5-2.9c-1-0.9-3.1-2.8-7.4,1.8l-0.7,0.8c-4.7,5-10,10.6-24.1,15.5c-0.7,0.2-1.5-0.1-1.8-0.8c-0.3-0.7,0.1-1.5,0.7-1.8
	c4.3-1.9,7.1-6.2,7.1-10.9c0-6.6-5.4-12-12-12s-12,5.4-12,12c0,4.7,2.8,9,7.1,10.9c0.6,0.2,0.9,0.8,0.8,1.4
	c-0.1,0.6-0.5,1.1-1.1,1.2c-10,2.4-16.9,11.2-16.9,21.4V169H68v-33.7c0-10.5,6.4-19.6,16-23.2c-3.7-2.8-5.9-7.1-5.9-11.8
	c0-8.1,6.6-14.8,14.8-14.8s14.8,6.6,14.8,14.8c0,2.8-0.8,5.5-2.3,7.8c8-3.8,11.7-7.8,15.4-11.7l0.7-0.8c4.2-4.4,8-5.1,11.4-2
	c0.4,0.4,0.7,0.7,1,1.1l0.9,0.9c3.7,4,7.9,8.4,15.9,12.3c-1.4-2.3-2.2-5-2.2-7.8c0-8.1,6.6-14.8,14.8-14.8s14.8,6.6,14.8,14.8
	c0,4.7-2.2,9-5.9,11.8c9.5,3.6,16,12.8,16,23.2V169z"/>
</svg>
