<?xml version="1.0" encoding="utf-8"?>
<!-- Generator: Adobe Illustrator 25.4.1, SVG Export Plug-In . SVG Version: 6.00 Build 0)  -->
<svg version="1.1" id="Layer_1" xmlns="http://www.w3.org/2000/svg" xmlns:xlink="http://www.w3.org/1999/xlink" x="0px" y="0px"
	 viewBox="0 0 256 256" style="enable-background:new 0 0 256 256;" xml:space="preserve">
<style type="text/css">
	.st0{fill:none;}
	.st1{fill:url(#networking--03_00000021804370819863639080000009452903203355616130_);}
</style>
<rect width="256" height="256"/>
<rect id="_Transparent_Rectangle" x="84" y="84" class="st0" width="88" height="88"/>
<linearGradient id="networking--03_00000124146378451039673790000013215408649742196900_" gradientUnits="userSpaceOnUse" x1="80.05" y1="81.05" x2="176.05" y2="177.05" gradientTransform="matrix(1 0 0 -1 0 257)">
	<stop  offset="0" style="stop-color:#0F62FE"/>
	<stop  offset="1" style="stop-color:#6929C4"/>
</linearGradient>
<path id="networking--03_1_" style="fill:url(#networking--03_00000124146378451039673790000013215408649742196900_);" d="
	M188,189.4h-24c-0.8,0-1.4-0.6-1.4-1.4v-24c0-0.8,0.6-1.4,1.4-1.4h24c0.8,0,1.4,0.6,1.4,1.4v24C189.4,188.8,188.8,189.4,188,189.4z
	 M165.4,186.6h21.1v-21.1h-21.1V186.6z M152,177.4H92c-14,0-25.4-11.4-25.4-25.4S78,126.6,92,126.6h12v2.9H92
	c-12.4,0-22.6,10.1-22.6,22.6c0,12.4,10.1,22.6,22.6,22.6h60V177.4z M140,141.4h-24c-0.8,0-1.4-0.6-1.4-1.4v-24
	c0-0.8,0.6-1.4,1.4-1.4h24c0.8,0,1.4,0.6,1.4,1.4v24C141.4,140.8,140.8,141.4,140,141.4z M117.4,138.6h21.1v-21.1h-21.1
	C117.4,117.4,117.4,138.6,117.4,138.6z M164,129.4h-12v-2.9h12c12.4,0,22.6-10.1,22.6-22.6c0-12.4-10.1-22.6-22.6-22.6h-60v-2.9h60
	c14,0,25.4,11.4,25.4,25.4C189.4,118,178,129.4,164,129.4z M92,93.4H68c-0.8,0-1.4-0.6-1.4-1.4V68c0-0.8,0.6-1.4,1.4-1.4h24
	c0.8,0,1.4,0.6,1.4,1.4v24C93.4,92.8,92.8,93.4,92,93.4z M69.4,90.6h21.1V69.4H69.4V90.6z"/>
<rect id="_Transparent_Rectangle_00000060710754565210660360000018169189755374300087_" x="64" y="64" class="st0" width="128" height="128"/>
</svg>
