<?xml version="1.0" encoding="utf-8"?>
<!-- Generator: Adobe Illustrator 25.4.1, SVG Export Plug-In . SVG Version: 6.00 Build 0)  -->
<svg version="1.1" id="Layer_1" xmlns="http://www.w3.org/2000/svg" xmlns:xlink="http://www.w3.org/1999/xlink" x="0px" y="0px"
	 viewBox="0 0 1150 646" style="enable-background:new 0 0 1150 646;" xml:space="preserve">
<style type="text/css">
	.st0{fill:#A8A8A8;}
	.st1{opacity:0.2;fill:url(#SVGID_1_);enable-background:new    ;}
	.st2{fill:none;stroke:#FFFFFF;stroke-width:10;stroke-miterlimit:10;}
	.st3{fill:url(#SVGID_00000147186575682673823480000007915404785343956139_);}
	.st4{fill:none;stroke:#8A3FFC;stroke-width:10;stroke-miterlimit:10;stroke-dasharray:12,14;}
	.st5{fill:none;stroke:#8A3FFC;stroke-width:10;stroke-miterlimit:10;}
	.st6{fill:none;stroke:#8A3FFC;stroke-width:10;stroke-miterlimit:10;stroke-dasharray:12.2732,14.3188;}
	.st7{fill:none;stroke:#002D9C;stroke-width:10;stroke-miterlimit:10;}
	.st8{fill:none;stroke:#002D9C;stroke-width:10;stroke-miterlimit:10;stroke-dasharray:11.9017,13.8853;}
	.st9{fill:#FFFFFF;}
	.st10{fill:#0043CE;}
	.st11{fill:#8A3FFC;}
	.st12{fill:#A56EFF;}
</style>
<rect class="st0" width="1150" height="646"/>
<linearGradient id="SVGID_1_" gradientUnits="userSpaceOnUse" x1="577.6" y1="523.2" x2="577.6" y2="-122.8" gradientTransform="matrix(1 0 0 1 0 124)">
	<stop  offset="0" style="stop-color:#4589FF"/>
	<stop  offset="0.68" style="stop-color:#FFFFFF"/>
</linearGradient>
<rect x="2.6" y="1.2" class="st1" width="1150" height="646"/>
<g>
	<line class="st2" x1="849.7" y1="323" x2="1115.4" y2="323"/>
	<polyline class="st2" points="1079.9,287.5 1115.4,323 1079.9,358.5 	"/>
</g>
<linearGradient id="SVGID_00000156575486355928313740000009668326674232989056_" gradientUnits="userSpaceOnUse" x1="641.1" y1="402.9147" x2="1041.1" y2="2.9146" gradientTransform="matrix(1 0 0 1 0 120.0853)">
	<stop  offset="0" style="stop-color:#002D9C"/>
	<stop  offset="0.6214" style="stop-color:#6929C4"/>
</linearGradient>
<rect x="641.1" y="123" style="fill:url(#SVGID_00000156575486355928313740000009668326674232989056_);" width="400" height="400"/>
<g>
	<g>
		<line class="st4" x1="297.5" y1="490.9" x2="569.4" y2="490.9"/>
		<polyline class="st5" points="533.9,455.4 569.4,490.9 533.9,526.5 		"/>
	</g>
	<g>
		<g>
			<g>
				<line class="st5" x1="298.4" y1="155.1" x2="304.4" y2="155.1"/>
				<line class="st6" x1="318.7" y1="155.1" x2="550.9" y2="155.1"/>
				<line class="st5" x1="558.1" y1="155.1" x2="564.1" y2="155.1"/>
			</g>
		</g>
		<polyline class="st5" points="528.5,119.5 564.1,155.1 528.5,190.6 		"/>
	</g>
	<g>
		<g>
			<g>
				<line class="st7" x1="183.5" y1="326.3" x2="189.5" y2="326.3"/>
				<line class="st8" x1="203.4" y1="326.3" x2="583.2" y2="326.3"/>
				<line class="st7" x1="590.2" y1="326.3" x2="596.2" y2="326.3"/>
			</g>
		</g>
		<polyline class="st7" points="560.6,290.7 596.2,326.3 560.6,361.8 		"/>
	</g>
</g>
<rect x="260.7" y="416.7" class="st9" width="149.5" height="149.5"/>
<rect x="260.7" y="80" class="st9" width="149.5" height="149.5"/>
<rect x="51.8" y="249.7" class="st9" width="149.5" height="149.5"/>
<circle class="st10" cx="126.6" cy="324.5" r="44"/>
<circle class="st9" cx="844.6" cy="324.5" r="128.5"/>
<circle class="st11" cx="335.5" cy="154.8" r="44"/>
<circle class="st12" cx="335.5" cy="491.5" r="44"/>
</svg>
