<?xml version="1.0" encoding="utf-8"?>
<!-- Generator: Adobe Illustrator 25.4.1, SVG Export Plug-In . SVG Version: 6.00 Build 0)  -->
<svg version="1.1" id="Layer_1" xmlns="http://www.w3.org/2000/svg" xmlns:xlink="http://www.w3.org/1999/xlink" x="0px" y="0px"
	 viewBox="0 0 1150 646" style="enable-background:new 0 0 1150 646;" xml:space="preserve">
<style type="text/css">
	.st0{fill:#A8A8A8;}
	.st1{fill:#6929C4;}
	.st2{fill:#0043CE;}
	.st3{fill:url(#SVGID_1_);}
	.st4{fill:url(#SVGID_00000103243377889867128180000009793294684727260071_);}
	.st5{fill:url(#SVGID_00000111888496537475012270000013261982345629905081_);}
	.st6{fill:#FFFFFF;}
	.st7{fill:#EDF5FF;}
	.st8{fill:#D0E2FF;}
	.st9{fill:#002D9C;}
	.st10{fill:url(#SVGID_00000029751831400300546190000004172500990236499340_);}
	.st11{opacity:0.2;fill:url(#SVGID_00000122709310399138545230000008068926483759640965_);}
</style>
<rect class="st0" width="1150" height="646"/>
<rect x="581" y="184.6" class="st1" width="567.7" height="60.8"/>
<rect x="581" y="402.6" class="st1" width="567.7" height="60.8"/>
<rect x="507" y="293.6" class="st2" width="641.7" height="60.8"/>
<g>
	<linearGradient id="SVGID_1_" gradientUnits="userSpaceOnUse" x1="573.2908" y1="215" x2="1148.7122" y2="215">
		<stop  offset="0.1316" style="stop-color:#FFFFFF"/>
		<stop  offset="1" style="stop-color:#000000"/>
	</linearGradient>
	<rect x="573.3" y="184.6" class="st3" width="575.4" height="60.8"/>
	
		<linearGradient id="SVGID_00000115488314983884339390000015335158356142624184_" gradientUnits="userSpaceOnUse" x1="573.2908" y1="433" x2="1148.7122" y2="433">
		<stop  offset="0.1316" style="stop-color:#FFFFFF"/>
		<stop  offset="1" style="stop-color:#000000"/>
	</linearGradient>
	
		<rect x="573.3" y="402.6" style="fill:url(#SVGID_00000115488314983884339390000015335158356142624184_);" width="575.4" height="60.8"/>
	
		<linearGradient id="SVGID_00000097472878945681856400000013080045390217854106_" gradientUnits="userSpaceOnUse" x1="498.286" y1="324" x2="1148.7122" y2="324">
		<stop  offset="0.1316" style="stop-color:#FFFFFF"/>
		<stop  offset="1" style="stop-color:#000000"/>
	</linearGradient>
	
		<rect x="498.3" y="293.6" style="fill:url(#SVGID_00000097472878945681856400000013080045390217854106_);" width="650.4" height="60.8"/>
</g>
<g>
	<path class="st6" d="M620.2,203c0-33.5,27.3-60.8,60.8-60.8h467V81.4H680.6v0c-66.8,0.2-121.1,54.7-121.1,121.6
		c0,33.5-27.3,60.8-60.8,60.8v60.8C565.7,324.6,620.2,270.1,620.2,203z"/>
	<path class="st6" d="M559.4,446.2c0,66.9,54.3,121.3,121.1,121.6v0H1148V507H681c-33.5,0-60.8-27.3-60.8-60.8
		c0-67-54.5-121.6-121.6-121.6v60.8C532.2,385.4,559.4,412.7,559.4,446.2z"/>
</g>
<g>
	<circle class="st7" cx="649" cy="215.2" r="30.5"/>
	<circle class="st7" cx="933.1" cy="323.4" r="30.5"/>
	<circle class="st7" cx="799.7" cy="433.4" r="30.5"/>
	<circle class="st7" cx="1063.7" cy="536.7" r="30.5"/>
	<circle class="st7" cx="857.2" cy="112" r="30.5"/>
</g>
<g>
	<circle class="st8" cx="675.3" cy="215.2" r="30.5"/>
	<circle class="st8" cx="959.4" cy="323.4" r="30.5"/>
	<circle class="st8" cx="826" cy="433.4" r="30.5"/>
	<circle class="st8" cx="1090" cy="536.7" r="30.5"/>
	<circle class="st8" cx="883.4" cy="112" r="30.5"/>
</g>
<circle class="st9" cx="697.3" cy="215.2" r="30.5"/>
<circle class="st9" cx="981.4" cy="323.4" r="30.5"/>
<circle class="st9" cx="848" cy="433.4" r="30.5"/>
<circle class="st9" cx="1112" cy="536.7" r="30.5"/>
<circle class="st9" cx="905.4" cy="112" r="30.5"/>
<path class="st6" d="M273.9,263.8v0.2c-41.7-0.3-75.6-34.3-75.6-76.1h-0.5C197.7,135.3,177.2,86,140,48.8
	C117.2,25.9,89.7,9.4,59.7,0H0.5v112.2c42,0,76.1,34.1,76.1,76.1h0.5c0.1,52.5,20.6,101.9,57.8,139.1c37.1,37.1,86.5,57.7,139,57.8
	v0.2h225.6V263.8H273.9z"/>
<linearGradient id="SVGID_00000044872804164137627020000017686829452811410095_" gradientUnits="userSpaceOnUse" x1="-4.8743" y1="5.3791" x2="187.9588" y2="198.2122">
	<stop  offset="0" style="stop-color:#4589FF"/>
	<stop  offset="0.6761" style="stop-color:#FFFFFF"/>
</linearGradient>
<path style="fill:url(#SVGID_00000044872804164137627020000017686829452811410095_);" d="M140,48.8C117.2,25.9,89.7,9.4,59.7,0H0.5
	v112.2c42,0,76.1,34.1,76.1,76.1h121.2C197.8,135.6,177.3,86.1,140,48.8z"/>
<linearGradient id="SVGID_00000115509496809365540860000007926898409024155581_" gradientUnits="userSpaceOnUse" x1="576.5881" y1="647.2393" x2="576.5881" y2="1.2393">
	<stop  offset="0" style="stop-color:#4589FF"/>
	<stop  offset="0.6761" style="stop-color:#FFFFFF"/>
</linearGradient>
<rect x="1.6" y="1.2" style="opacity:0.2;fill:url(#SVGID_00000115509496809365540860000007926898409024155581_);" width="1150" height="646"/>
</svg>
