<?xml version="1.0" encoding="utf-8"?>
<!-- Generator: Adobe Illustrator 25.4.1, SVG Export Plug-In . SVG Version: 6.00 Build 0)  -->
<svg version="1.1" id="Layer_1" xmlns="http://www.w3.org/2000/svg" xmlns:xlink="http://www.w3.org/1999/xlink" x="0px" y="0px"
	 viewBox="0 0 256 256" style="enable-background:new 0 0 256 256;" xml:space="preserve">
<style type="text/css">
	.st0{fill:#F4F4F4;}
	.st1{fill:url(#machine--learning--05_00000137133047952330576230000000068036345842070429_);}
	.st2{fill:none;}
</style>
<rect class="st0" width="256" height="256"/>
<linearGradient id="machine--learning--05_00000164482310010828830110000010682644602080434325_" gradientUnits="userSpaceOnUse" x1="88.6" y1="89.7" x2="167.3" y2="168.4" gradientTransform="matrix(1 0 0 -1 0 257)">
	<stop  offset="0" style="stop-color:#0F62FE"/>
	<stop  offset="1" style="stop-color:#6929C4"/>
</linearGradient>
<path id="machine--learning--05_1_" style="fill:url(#machine--learning--05_00000164482310010828830110000010682644602080434325_);" d="
	M128,156.8c15.9,0,28.8-12.9,28.8-28.8S143.9,99.2,128,99.2S99.2,112.1,99.2,128S112.1,156.8,128,156.8z M113.8,149.7v-4.1
	c0-6.2,4-11.7,10.1-13.5c0.5-0.2,0.9-0.6,1-1.2c0.1-0.6-0.2-1.1-0.7-1.4c-2.7-1.5-4.4-4.3-4.4-7.3c0-4.6,3.8-8.4,8.4-8.4
	s8.4,3.8,8.4,8.4c0,3.1-1.7,5.9-4.4,7.3c-0.5,0.3-0.8,0.8-0.7,1.4c0.1,0.6,0.4,1,1,1.2c6,1.9,10.1,7.3,10.1,13.5v4.1
	c-4.1,2.7-9,4.3-14.2,4.3S117.9,152.4,113.8,149.7z M128,102.1c14.3,0,25.9,11.6,25.9,25.9c0,7.8-3.5,14.8-8.9,19.5v-1.9
	c0-6.6-3.7-12.4-9.5-15.2c2.3-2.1,3.7-5.1,3.7-8.2c0-6.2-5-11.2-11.2-11.2s-11.2,5-11.2,11.2c0,3.2,1.4,6.1,3.7,8.2
	c-5.8,2.8-9.5,8.6-9.5,15.2v1.9c-5.4-4.8-8.9-11.7-8.9-19.5C102.1,113.7,113.7,102.1,128,102.1z M180.7,136.4
	c-3.5,0-6.5,2.5-7.1,5.9h-9v-28.4h9c0.7,3.3,3.6,5.9,7.1,5.9c4,0,7.3-3.3,7.3-7.3s-3.3-7.3-7.3-7.3c-3.5,0-6.5,2.5-7.1,5.9h-9V92.8
	c0-0.8-0.6-1.4-1.4-1.4H145v-9.1c3.3-0.7,5.9-3.6,5.9-7.1c0-4-3.3-7.3-7.3-7.3s-7.3,3.3-7.3,7.3c0,3.5,2.5,6.5,5.9,7.1v9.1h-28.4
	v-9.1c3.3-0.7,5.9-3.6,5.9-7.1c0-4-3.3-7.3-7.3-7.3s-7.3,3.3-7.3,7.3c0,3.5,2.5,6.5,5.9,7.1v9.1H92.8c-0.8,0-1.4,0.6-1.4,1.4V111
	h-9.1c-0.7-3.3-3.6-5.9-7.1-5.9c-4,0-7.3,3.3-7.3,7.3s3.3,7.3,7.3,7.3c3.5,0,6.5-2.5,7.1-5.9h9.1v28.4h-9.1
	c-0.7-3.3-3.6-5.9-7.1-5.9c-4,0-7.3,3.3-7.3,7.3s3.3,7.3,7.3,7.3c3.5,0,6.5-2.5,7.1-5.9h9.1v18.1c0,0.8,0.6,1.4,1.4,1.4H111v9
	c-3.3,0.7-5.9,3.6-5.9,7.1c0,4,3.3,7.3,7.3,7.3s7.3-3.3,7.3-7.3c0-3.5-2.5-6.5-5.9-7.1v-9h28.4v9c-3.3,0.7-5.9,3.6-5.9,7.1
	c0,4,3.3,7.3,7.3,7.3s7.3-3.3,7.3-7.3c0-3.5-2.5-6.5-5.9-7.1v-9h18.1c0.8,0,1.4-0.6,1.4-1.4V145h9c0.7,3.3,3.6,5.9,7.1,5.9
	c4,0,7.3-3.3,7.3-7.3S184.7,136.4,180.7,136.4z M180.7,107.9c2.5,0,4.5,2,4.5,4.5s-2,4.5-4.5,4.5s-4.5-2-4.5-4.5
	S178.3,107.9,180.7,107.9z M139.2,75.3c0-2.5,2-4.5,4.5-4.5s4.5,2,4.5,4.5s-2,4.5-4.5,4.5S139.2,77.7,139.2,75.3z M107.9,75.3
	c0-2.5,2-4.5,4.5-4.5s4.5,2,4.5,4.5s-2,4.5-4.5,4.5S107.9,77.7,107.9,75.3z M75.3,116.8c-2.5,0-4.5-2-4.5-4.5s2-4.5,4.5-4.5
	s4.5,2,4.5,4.5S77.7,116.8,75.3,116.8z M75.3,148.1c-2.5,0-4.5-2-4.5-4.5s2-4.5,4.5-4.5s4.5,2,4.5,4.5S77.7,148.1,75.3,148.1z
	 M116.8,180.7c0,2.5-2,4.5-4.5,4.5s-4.5-2-4.5-4.5s2-4.5,4.5-4.5S116.8,178.3,116.8,180.7z M148.1,180.7c0,2.5-2,4.5-4.5,4.5
	s-4.5-2-4.5-4.5s2-4.5,4.5-4.5S148.1,178.3,148.1,180.7z M161.8,161.8H94.2V94.2h67.5C161.8,94.2,161.8,161.8,161.8,161.8z
	 M180.7,148.1c-2.5,0-4.5-2-4.5-4.5s2-4.5,4.5-4.5s4.5,2,4.5,4.5S183.2,148.1,180.7,148.1z"/>
<rect id="_Transparent_Rectangle" x="84" y="84" class="st2" width="88" height="88"/>
</svg>
